<?xml version="1.0" encoding="UTF-8"?>
<!DOCTYPE svg PUBLIC "-//W3C//DTD SVG 1.1//EN" "http://www.w3.org/Graphics/SVG/1.1/DTD/svg11.dtd">
<svg xmlns="http://www.w3.org/2000/svg" version="1.1" width="500px" height="500px" style="shape-rendering:geometricPrecision; text-rendering:geometricPrecision; image-rendering:optimizeQuality; fill-rule:evenodd; clip-rule:evenodd" xmlns:xlink="http://www.w3.org/1999/xlink">
<g><path style="opacity:1" fill="#fefefe" d="M -0.5,-0.5 C 166.167,-0.5 332.833,-0.5 499.5,-0.5C 499.5,166.167 499.5,332.833 499.5,499.5C 332.833,499.5 166.167,499.5 -0.5,499.5C -0.5,332.833 -0.5,166.167 -0.5,-0.5 Z"/></g>
<g><path style="opacity:1" fill="#000000" d="M 302.5,327.5 C 302.44,326.957 302.107,326.624 301.5,326.5C 300.507,331.12 300.173,335.786 300.5,340.5C 286.5,340.5 272.5,340.5 258.5,340.5C 258.5,270.5 258.5,200.5 258.5,130.5C 272.833,130.5 287.167,130.5 301.5,130.5C 301.333,162.835 301.5,195.168 302,227.5C 315.322,214.949 331.155,209.782 349.5,212C 376.159,215.99 393.659,230.823 402,256.5C 409.296,285.414 402.462,310.247 381.5,331C 366.953,341.721 350.619,346.055 332.5,344C 320.854,341.347 310.854,335.847 302.5,327.5 Z"/></g>
<g><path style="opacity:1" fill="#8d8d8d" d="M 166.5,139.5 C 143.167,139.5 119.833,139.5 96.5,139.5C 96.5,206.5 96.5,273.5 96.5,340.5C 95.5008,273.335 95.1675,206.002 95.5,138.5C 119.339,138.169 143.006,138.502 166.5,139.5 Z"/></g>
<g><path style="opacity:1" fill="#000000" d="M 166.5,139.5 C 208.848,142.665 226.015,164.998 218,206.5C 214.258,218.663 206.758,227.663 195.5,233.5C 224.181,238.507 238.181,255.507 237.5,284.5C 236.624,313.552 221.958,331.386 193.5,338C 189.181,338.76 184.848,339.427 180.5,340C 152.502,340.5 124.502,340.667 96.5,340.5C 96.5,273.5 96.5,206.5 96.5,139.5C 119.833,139.5 143.167,139.5 166.5,139.5 Z"/></g>
<g><path style="opacity:1" fill="#b7b7b7" d="M 142.5,174.5 C 142.5,188.833 142.5,203.167 142.5,217.5C 145.833,217.5 149.167,217.5 152.5,217.5C 149.038,218.482 145.371,218.815 141.5,218.5C 141.171,203.657 141.504,188.99 142.5,174.5 Z"/></g>
<g><path style="opacity:1" fill="#fbfbfb" d="M 142.5,174.5 C 154.107,172.94 164.273,175.94 173,183.5C 177.653,192.306 177.32,200.972 172,209.5C 166.574,214.655 160.074,217.322 152.5,217.5C 149.167,217.5 145.833,217.5 142.5,217.5C 142.5,203.167 142.5,188.833 142.5,174.5 Z"/></g>
<g><path style="opacity:1" fill="#fbfbfb" d="M 322.5,248.5 C 343.987,246.666 356.32,256.333 359.5,277.5C 358.375,296.792 348.208,306.792 329,307.5C 307.802,304.948 298.468,292.948 301,271.5C 303.909,259.76 311.076,252.094 322.5,248.5 Z"/></g>
<g><path style="opacity:1" fill="#bbbbbb" d="M 142.5,257.5 C 142.5,273.167 142.5,288.833 142.5,304.5C 150.167,304.5 157.833,304.5 165.5,304.5C 157.684,305.492 149.684,305.826 141.5,305.5C 141.17,289.325 141.504,273.325 142.5,257.5 Z"/></g>
<g><path style="opacity:1" fill="#fdfdfd" d="M 142.5,257.5 C 152.557,257.135 162.557,257.635 172.5,259C 187.795,264.148 193.295,274.648 189,290.5C 184.061,299.883 176.227,304.549 165.5,304.5C 157.833,304.5 150.167,304.5 142.5,304.5C 142.5,288.833 142.5,273.167 142.5,257.5 Z"/></g>
<g><path style="opacity:1" fill="#7f7f7f" d="M 302.5,327.5 C 301.833,331.833 301.167,336.167 300.5,340.5C 300.173,335.786 300.507,331.12 301.5,326.5C 302.107,326.624 302.44,326.957 302.5,327.5 Z"/></g>
</svg>
