<?xml version="1.0" standalone="no"?>
<!DOCTYPE svg PUBLIC "-//W3C//DTD SVG 20010904//EN"
 "http://www.w3.org/TR/2001/REC-SVG-20010904/DTD/svg10.dtd">
<svg version="1.0" xmlns="http://www.w3.org/2000/svg"
 width="500.000000pt" height="500.000000pt" viewBox="0 0 500.000000 500.000000"
 preserveAspectRatio="xMidYMid meet">

<g transform="translate(0.000000,500.000000) scale(0.100000,-0.100000)"
fill="#000000" stroke="none">
<path d="M2590 2640 l0 -1050 215 0 215 0 0 71 0 72 49 -46 c123 -115 310
-161 496 -122 211 44 382 206 457 430 20 61 23 90 23 220 0 139 -2 156 -28
230 -105 298 -364 464 -664 427 -110 -14 -199 -47 -271 -102 -29 -22 -55 -40
-57 -40 -3 0 -5 216 -5 480 l0 480 -215 0 -215 0 0 -1050z m813 -146 c65 -22
139 -91 167 -156 35 -79 33 -186 -4 -261 -50 -103 -142 -157 -266 -157 -199 0
-334 185 -276 381 47 163 216 249 379 193z"/>
<path d="M970 2594 l0 -1005 458 4 c507 4 520 6 659 73 137 65 236 183 279
329 21 72 23 225 5 305 -43 177 -166 299 -349 342 -29 7 -52 16 -52 20 0 4 13
14 30 23 51 27 128 112 160 180 60 125 63 305 9 451 -33 87 -129 180 -229 221
-139 58 -190 63 -600 63 l-370 0 0 -1006z m686 621 c29 -14 62 -38 73 -53 64
-90 40 -240 -47 -296 -46 -31 -97 -44 -187 -48 l-70 -3 -3 219 -2 219 91 -6
c70 -4 104 -12 145 -32z m105 -823 c95 -37 139 -104 140 -211 1 -81 -15 -124
-62 -165 -55 -47 -137 -67 -291 -74 l-128 -5 0 243 0 242 143 -4 c115 -4 153
-9 198 -26z"/>
</g>
</svg>
